<svg width="18" height="18" viewBox="0 0 18 18" fill="none" xmlns="http://www.w3.org/2000/svg">
<path d="M6.70312 15.1406C8.54688 14.3906 10.3125 14.0156 12 14.0156C13.6875 14.0156 15.4375 14.3906 17.25 15.1406C19.0938 15.8594 20.0156 16.8125 20.0156 18V20.0156H3.98438V18C3.98438 16.8125 4.89062 15.8594 6.70312 15.1406ZM14.8125 10.8281C14.0312 11.6094 13.0938 12 12 12C10.9062 12 9.96875 11.6094 9.1875 10.8281C8.40625 10.0469 8.01562 9.10938 8.01562 8.01562C8.01562 6.92188 8.40625 5.98438 9.1875 5.20312C9.96875 4.39063 10.9062 3.98438 12 3.98438C13.0938 3.98438 14.0312 4.39063 14.8125 5.20312C15.5938 5.98438 15.9844 6.92188 15.9844 8.01562C15.9844 9.10938 15.5938 10.0469 14.8125 10.8281Z" transform="translate(-3 -3)" fill="#26A8DF"/>
</svg>
